<?xml version="1.0" encoding="UTF-8"?>
<svg width="600px" height="600px" viewBox="0 0 600 600" version="1.1" xmlns="http://www.w3.org/2000/svg" xmlns:xlink="http://www.w3.org/1999/xlink">
    <!-- Generator: Sketch 50.2 (55047) - http://www.bohemiancoding.com/sketch -->
    <title>Artboard</title>
    <desc>Created with Sketch.</desc>
    <defs>
        <linearGradient x1="56.3191741%" y1="11.8125812%" x2="56.611%" y2="102.633643%" id="linearGradient-1">
            <stop stop-color="#F39B34" offset="0%"></stop>
            <stop stop-color="#D52061" offset="100%"></stop>
        </linearGradient>
    </defs>
    <g id="Artboard" stroke="none" stroke-width="1" fill="none" fill-rule="evenodd">
        <g id="Island" transform="translate(277.000000, 363.000000)">
            <g id="Drink" transform="translate(0.583215, 0.743243)">
                <path d="M10.4883943,7.5047597 C10.5073426,7.13093752 10.4937802,6.75798494 10.4459058,6.40152384 L10.5850849,6.39623294 L10.4883943,7.50475932 Z M10.4471865,7.97719415 L9.15968037,22.7380452 C9.15025394,23.3981407 9.1461059,23.6886118 8.00497374,24.3598702 C6.86384158,25.0311286 3.85227147,25.4008742 2.17317175,24.4431506 C1.21456936,23.8247991 0.96198101,23.5439063 0.968519914,23.0860126 C0.968519914,23.0860126 0.740961803,18.3818445 0.285845579,8.97350837 C0.558358046,9.85681212 1.02965098,10.6126801 1.66932861,10.9760407 C3.55295046,12.0460077 7.05806639,12.1003448 8.91607991,10.9760407 C9.75375181,10.4691564 10.2886191,9.25707828 10.4471865,7.97719408 Z" id="Combined-Shape" fill-opacity="0.840000033" fill="url(#linearGradient-1)"></path>
                <path d="M8.79448907,11.1217076 C10.6263334,9.99740347 10.690895,7.9111673 8.79448907,6.80350124 C6.89808316,5.69583519 3.43684138,5.69474461 1.64980469,6.80350124 C-0.137231998,7.91225788 -0.207287268,10.0517406 1.64980469,11.1217076 C3.50689665,12.1916746 6.96264475,12.2460117 8.79448907,11.1217076 Z" id="Oval-4-Copy-4" fill-opacity="0.75" fill="#EC9E59"></path>
                <path d="M8.79832919,4.53504354 C6.95051039,3.43826431 3.4923304,3.44587838 1.7268039,4.53274604 C0.864639595,5.06349904 0.385576935,5.84321802 0.412527144,6.60943442 C0.418362318,6.77533316 0.929441132,14.9416383 1.02242785,16.4487661 C1.03983081,16.7309561 1.03983081,16.7309561 1.05721711,17.0133933 C1.2115814,19.5222208 1.33710947,21.6104798 1.43314562,23.2890882 C1.43314562,23.9286346 3.11451194,24.9619946 5.26552923,24.8730193 C7.66429482,24.7737962 8.7319445,24.2327716 8.93776817,23.3664017 C9.00614302,23.0785927 9.07443596,22.085713 9.63251721,13.5792272 C9.65680297,13.2092683 9.65680297,13.2092683 9.68111741,12.8399173 C9.86643846,10.0271316 9.99972263,8.08939055 10.1126071,6.61910104 C10.1126071,6.04029743 9.36112483,4.86909283 8.79832919,4.53504354 Z" id="Oval-4-Copy-2" stroke-opacity="0.788609601" stroke="#F4F4F4" stroke-width="0.550000012" fill-opacity="0.0243149909" fill="#F29E5A"></path>
                <path d="M0.39947881,6.53856685 C0.39947881,7.02126447 1.46818547,9.46587685 5.2857797,9.46587685 C9.10337392,9.46587685 10.1720806,7.02126447 10.1720806,6.53856685" id="Oval-4" stroke="#F6F5F5" stroke-width="0.550000012"></path>
                <path d="M4.04636796,9.29222668 L4.07207854,22.9429359 L3.2226879,22.9429359 L3.21121226,8.7241184 C3.41404085,8.87818943 3.56741062,8.98866931 3.67132158,9.05555802 C3.77523255,9.12244673 3.90024801,9.20133628 4.04636796,9.29222668 Z" id="Rectangle-4" fill-opacity="0.65" fill="#30D5EA" transform="translate(3.641645, 15.833527) rotate(-10.000000) translate(-3.641645, -15.833527) "></path>
                <path d="M1.21923932,0.035083317 L1.94197861,0.179619209 L2.09650504,8.98371885 C1.91071516,8.85083487 1.78206085,8.75790384 1.71054211,8.70492573 C1.63902338,8.65194763 1.50167033,8.53134046 1.29848298,8.34310423 L1.21923932,0.035083317 Z" id="Rectangle-5" fill="#30D5EA" transform="translate(1.657872, 4.509401) rotate(-10.000000) translate(-1.657872, -4.509401) "></path>
                <polygon id="Path-47" fill-opacity="0.15" fill="#000000" points="4.78846419 25.3431391 20.7416776 27.301497 22.2609216 25.8442009 22.2609216 23.7245648 21.3546165 20.7755221 9.63816599 21.3752583 10.2721913 7.03089953 8.40599535 9.08216329 6.73073116 9.61996679 5.12226817 9.61996679"></polygon>
            </g>
        </g>
    </g>
</svg>