<?xml version="1.0" encoding="UTF-8"?>
<svg width="600px" height="600px" viewBox="0 0 600 600" version="1.1" xmlns="http://www.w3.org/2000/svg" xmlns:xlink="http://www.w3.org/1999/xlink">
    <!-- Generator: Sketch 50.2 (55047) - http://www.bohemiancoding.com/sketch -->
    <title>Artboard</title>
    <desc>Created with Sketch.</desc>
    <defs>
        <path d="M12.7099771,23.2938645 L5.32794088,8.14609662 L25.1741713,4.19425325 L25.9001066,0.186526714 L2.36637701,4.19425325 C1.02785454,4.50455881 0.250888153,4.89626819 0.0354778543,5.36938141 C-0.287637594,6.07905123 2.16271242,14.0660961 3.197839,16.7241448 C3.88792339,18.4961773 5.99820123,23.3074937 9.52867252,31.1580939 L15.5120752,30.486852 L16.8731286,25.8790125 L12.7099771,23.2938645 Z" id="path-1"></path>
        <path d="M6.88830018,5.61180531 L0.239324854,22.1475014 L3.56381252,27.6287693 L14.8780558,27.6287693 L18.5581734,21.8191732 C19.5616488,21.6145647 20.2794786,21.34735 20.7116629,21.0175289 C21.9805286,20.049195 22.9356776,18.4519321 23.2358879,17.9780068 C23.6894788,17.2619482 23.2365095,16.9106741 21.8769799,16.9241845 L24.2615558,12.815562 L24.2615558,9.73522038 L6.88830018,5.61180531 Z" id="path-3"></path>
        <filter x="-8.3%" y="-4.5%" width="116.7%" height="118.2%" filterUnits="objectBoundingBox" id="filter-4">
            <feOffset dx="0" dy="1" in="SourceAlpha" result="shadowOffsetOuter1"></feOffset>
            <feGaussianBlur stdDeviation="0.5" in="shadowOffsetOuter1" result="shadowBlurOuter1"></feGaussianBlur>
            <feColorMatrix values="0 0 0 0 0   0 0 0 0 0   0 0 0 0 0  0 0 0 0.5 0" type="matrix" in="shadowBlurOuter1"></feColorMatrix>
        </filter>
        <path d="M20.1250637,12.4537396 L18.3729761,17.8752863 L15.3283333,22.1081537 L13.5419062,23.9198225 L10.3355976,23.9198225 C10.3407896,22.8638887 10.2342566,21.9896883 10.0159985,21.2972214 C8.14599238,20.419814 7.73436644,20.0078348 5.42553661,19.6073424 C4.83283374,19.6073424 4.23921684,19.8022436 3.64468591,20.1920459 L1.94440614,18.1867811 L0.130970433,22.1081537 L1.94440614,26.393706 L3.33149154,28.4034239 L6.0991031,29.0229524 L9.34746803,29.0229524 L13.1097684,28.4034239 L15.3283333,27.3628008 L18.3729761,22.1081537 L20.1250637,18.6597916 L21.4353674,16.9503708 L22.6515243,16.9503708 L23.792448,15.9017172 L25.1058385,13.1621018 L24.6860474,10.8547333 L21.4353674,10.8547333 L20.1250637,12.4537396 Z" id="path-5"></path>
        <filter x="-14.0%" y="-13.8%" width="128.0%" height="138.5%" filterUnits="objectBoundingBox" id="filter-6">
            <feOffset dx="0" dy="1" in="SourceAlpha" result="shadowOffsetOuter1"></feOffset>
            <feGaussianBlur stdDeviation="1" in="shadowOffsetOuter1" result="shadowBlurOuter1"></feGaussianBlur>
            <feColorMatrix values="0 0 0 0 0   0 0 0 0 0   0 0 0 0 0  0 0 0 0.5 0" type="matrix" in="shadowBlurOuter1"></feColorMatrix>
        </filter>
        <path d="M27.8703579,9.16796867 C26.9267144,10.8608363 26.5769444,11.3148941 23.8037164,12.3100756 C22.1989598,12.8859476 20.9478303,12.8295958 19.1143888,12.3100756 C15.4034161,11.2585423 16.0713623,10.6668922 12.714888,9.16796867 C10.4415875,8.15276542 10.58903,7.95426317 7.85483911,7.28182208 C6.05431473,6.83900494 4.05101275,6.57660927 1.84493315,6.49463507 L6.88590863,5.54936151 L1.42714075,3.98784538 C6.90422922,3.67534067 9.64277345,3.51908831 9.64277345,3.51908831 C9.64277345,3.51908831 7.61970343,3.4394486 5.29213127,2.71513889 L2.3980406,0.74538658 C4.24507876,1.35856842 5.61280685,1.64812112 6.50122485,1.61404468 C8.76313572,1.5272861 10.91323,0.74538658 10.91323,0.74538658 C10.91323,0.74538658 11.6964147,0.268151048 16.3285328,0.268151048 C19.1143888,0.74538658 19.5088982,1.1845059 22.8979929,2.36391802 C25.7396785,4.01385181 26.3531842,3.9873487 27.5722949,5.54936151 C28.2671754,7.28182208 28.1515067,7.71105476 27.8703579,9.16796867 Z" id="path-7"></path>
        <filter x="-7.5%" y="-8.0%" width="115.0%" height="132.1%" filterUnits="objectBoundingBox" id="filter-8">
            <feOffset dx="0" dy="1" in="SourceAlpha" result="shadowOffsetOuter1"></feOffset>
            <feGaussianBlur stdDeviation="0.5" in="shadowOffsetOuter1" result="shadowBlurOuter1"></feGaussianBlur>
            <feColorMatrix values="0 0 0 0 0   0 0 0 0 0   0 0 0 0 0  0 0 0 0.5 0" type="matrix" in="shadowBlurOuter1"></feColorMatrix>
        </filter>
        <polyline id="path-9" points="8.54032549 13.3420459 6.60911779 16.115493 5.35826052 17.5472456 5.35826052 18.6089074 6.21031615 19.3594595 6.8646726 19.3594595"></polyline>
        <filter x="-87.2%" y="-62.7%" width="337.3%" height="225.5%" filterUnits="objectBoundingBox" id="filter-10">
            <feMorphology radius="0.275000006" operator="dilate" in="SourceAlpha" result="shadowSpreadOuter1"></feMorphology>
            <feOffset dx="1" dy="0" in="shadowSpreadOuter1" result="shadowOffsetOuter1"></feOffset>
            <feMorphology radius="1" operator="erode" in="SourceAlpha" result="shadowInner"></feMorphology>
            <feOffset dx="1" dy="0" in="shadowInner" result="shadowInner"></feOffset>
            <feComposite in="shadowOffsetOuter1" in2="shadowInner" operator="out" result="shadowOffsetOuter1"></feComposite>
            <feGaussianBlur stdDeviation="1" in="shadowOffsetOuter1" result="shadowBlurOuter1"></feGaussianBlur>
            <feColorMatrix values="0 0 0 0 0   0 0 0 0 0   0 0 0 0 0  0 0 0 0.5 0" type="matrix" in="shadowBlurOuter1"></feColorMatrix>
        </filter>
        <path d="M5.15395305,20.3923107 L3.46474478,21.3647308 C3.33210839,22.1921387 3.33210839,22.7054935 3.46474478,22.9047951 C3.59738117,23.1040967 4.16045059,23.4368192 5.15395305,23.9029627 L6.68125445,24.5661125 L8.24895748,24.5661125 L8.79475483,23.3377136 L8.79475483,21.7027426 L5.15395305,20.3923107 Z" id="path-11"></path>
        <filter x="-18.4%" y="-24.0%" width="136.8%" height="147.9%" filterUnits="objectBoundingBox" id="filter-12">
            <feGaussianBlur stdDeviation="0.5" in="SourceAlpha" result="shadowBlurInner1"></feGaussianBlur>
            <feOffset dx="0" dy="1" in="shadowBlurInner1" result="shadowOffsetInner1"></feOffset>
            <feComposite in="shadowOffsetInner1" in2="SourceAlpha" operator="arithmetic" k2="-1" k3="1" result="shadowInnerInner1"></feComposite>
            <feColorMatrix values="0 0 0 0 0   0 0 0 0 0   0 0 0 0 0  0 0 0 0.5 0" type="matrix" in="shadowInnerInner1"></feColorMatrix>
        </filter>
        <linearGradient x1="-23.8127277%" y1="-3.05266665%" x2="94.0082533%" y2="79.4627273%" id="linearGradient-13">
            <stop stop-color="#FFB6B9" offset="0%"></stop>
            <stop stop-color="#DE745B" offset="27.059512%"></stop>
            <stop stop-color="#4C1313" offset="100%"></stop>
        </linearGradient>
        <radialGradient cx="11.2339795%" cy="28.6867165%" fx="11.2339795%" fy="28.6867165%" r="97.3997847%" gradientTransform="translate(0.112340,0.286867),scale(0.782663,1.000000),rotate(40.783992),translate(-0.112340,-0.286867)" id="radialGradient-14">
            <stop stop-color="#747474" offset="0%"></stop>
            <stop stop-color="#000000" offset="100%"></stop>
        </radialGradient>
        <radialGradient cx="-8.31016526%" cy="25.5311165%" fx="-8.31016526%" fy="25.5311165%" r="127.550843%" gradientTransform="translate(-0.083102,0.255311),scale(1.000000,0.893239),rotate(23.957387),translate(0.083102,-0.255311)" id="radialGradient-15">
            <stop stop-color="#828282" offset="0%"></stop>
            <stop stop-color="#000000" offset="100%"></stop>
        </radialGradient>
        <polyline id="path-16" points="4.25990267 21.872853 4.97487948 22.260123 6.71401225 22.7407289 8.08926493 22.7407289"></polyline>
        <filter x="-59.4%" y="-146.9%" width="218.8%" height="624.3%" filterUnits="objectBoundingBox" id="filter-17">
            <feMorphology radius="0.275000006" operator="dilate" in="SourceAlpha" result="shadowSpreadOuter1"></feMorphology>
            <feOffset dx="0" dy="1" in="shadowSpreadOuter1" result="shadowOffsetOuter1"></feOffset>
            <feMorphology radius="1" operator="erode" in="SourceAlpha" result="shadowInner"></feMorphology>
            <feOffset dx="0" dy="1" in="shadowInner" result="shadowInner"></feOffset>
            <feComposite in="shadowOffsetOuter1" in2="shadowInner" operator="out" result="shadowOffsetOuter1"></feComposite>
            <feGaussianBlur stdDeviation="0.5" in="shadowOffsetOuter1" result="shadowBlurOuter1"></feGaussianBlur>
            <feColorMatrix values="0 0 0 0 0   0 0 0 0 0   0 0 0 0 0  0 0 0 0.5 0" type="matrix" in="shadowBlurOuter1"></feColorMatrix>
        </filter>
    </defs>
    <g id="Artboard" stroke="none" stroke-width="1" fill="none" fill-rule="evenodd">
        <g id="Island" transform="translate(177.000000, 275.000000)">
            <g id="Gabri" transform="translate(0.366999, 0.027027)">
                <path d="M89.0786319,35.1289877 L85.1344067,23.0205248 L100.734709,16.8317947 L101.460644,12.8240682 L81.9817682,18.4824905 C80.8892696,18.7922824 80.1913795,19.1267805 79.8880978,19.4859845 C79.5848162,19.8451886 79.4481305,20.4991548 79.4780408,21.447883 L85.0892104,43.7956354 C82.8309786,48.503785 81.8166873,50.8449783 82.0463365,50.8192154 C82.2759857,50.7934524 85.2847445,48.2285118 91.072613,43.1243935 C100.922755,43.2118876 106.168555,42.5358088 106.810015,41.096157 C107.451474,39.6565052 103.505936,37.4143556 94.9734004,34.3697082 L89.0786319,35.1289877 Z" id="Path-15-Copy" fill="#FFDACA" transform="translate(93.175653, 31.821747) scale(-1, 1) rotate(-40.000000) translate(-93.175653, -31.821747) "></path>
                <polygon id="Path-28" fill="#11273F" points="47.8766285 87.0202808 47.8766285 87.9933435 48.7451206 89.0516569 52.5919603 92.3649498 56.6987411 94.6624112 58.0559225 94.6624112 62.5881403 87.9933435 54.6290322 81.5102772"></polygon>
                <g id="Path-38" transform="translate(59.498129, 5.732492)">
                    <mask id="mask-2" fill="white">
                        <use xlink:href="#path-1"></use>
                    </mask>
                    <use id="Mask" fill="#FFDACA" xlink:href="#path-1"></use>
                    <path d="M12.8412882,25.7591555 L11.0827686,22.1029955 L8.98577451,17.7261635 L7.11747942,13.4468897 L5.45114316,10.2215244 L3.00934129,8.03992696 L6.6027307,7.28358857 L17.031758,5.09709577 L20.1955451,4.56035077 L19.0576795,7.28358857 L8.98577451,9.4480521 L13.2202249,19.2328959 L14.6800283,22.7453411 C14.8504399,23.550938 14.8504399,24.0933943 14.6800283,24.37271 C14.5096167,24.6520257 13.8967033,25.1141742 12.8412882,25.7591555 Z" fill-opacity="0.1" fill="#000000" mask="url(#mask-2)"></path>
                </g>
                <polygon id="Path-27" fill="#11273F" points="34.6135663 76.7517421 34.2767982 77.814074 34.6135663 79.0357127 41.5317547 84.7024396 44.3715951 85.4680351 46.5142029 83.9563253 49.5532487 82.3248943 44.847448 73.9594253 38.7518289 73.9594253"></polygon>
                <path d="M82.8855924,75.8811374 L77.9626347,79.4184604 L63.8369866,90.5108426 L43.6615918,101.778565 L20.1274649,116.387249 C18.0265296,116.983556 16.6177841,116.983556 15.9012282,116.387249 C15.1846724,115.790943 14.9868612,114.453992 15.3077947,112.376396 C15.3325315,104.062639 15.5303426,99.7888459 15.9012282,99.5550161 C16.0454749,99.4640738 18.3288718,98.6121155 20.1274649,100.289984 C20.5505714,100.684692 20.2250398,109.009973 21.4017962,108.804804 C23.5348551,108.432904 30.4927983,102.66615 38.2284742,96.6310988 C39.4047352,95.713429 40.0628133,94.1906408 42.2785853,92.4220543 C44.6702477,90.5130754 45.7680358,88.8836423 46.3746977,88.4200844 C50.0827372,85.5867256 49.2139401,86.1713269 50.6082834,85.0328419 C53.2584142,82.869003 57.3880203,82.7275193 58.5674871,81.1665091 C60.8300968,78.1719722 60.8300968,75.9748584 58.5674871,74.5751678 C55.5329218,75.7243118 53.2836097,76.8289808 51.8195509,77.8891747 C50.355492,78.9493686 47.1751702,81.0767781 42.2785853,84.2714033 L26.1435314,93.4777344 L4.35134015,105.845955 C2.73300855,106.330315 1.59444188,106.330315 0.935640146,105.845955 C0.276838412,105.361594 -0.0118875082,104.312227 0.0694623842,102.697855 C-0.146802462,95.298451 0.141923459,91.317373 0.935640146,90.754621 C1.20149276,90.5661292 2.98096364,90.1932933 4.35134015,91.5978845 C4.65415351,91.9082584 4.54748421,99.2446958 5.41958639,99.0487174 C7.25879999,98.6354101 17.1119211,91.8567254 25.4948143,85.0328419 C26.3287466,84.3540002 30.902434,80.6730506 32.0454577,79.9030966 C39.9202831,74.5985224 40.3792805,74.299407 43.6615918,71.4653259 C47.4203277,68.2198805 49.7358915,65.8230029 50.6082834,64.2746932 L57.6406703,58.0884507 L69.3072308,55.1753632 L80.2781681,61.6844806 L82.8855924,75.8811374 Z" id="Path-25" fill="#FFDACA"></path>
                <polygon id="Path-26" fill="#FF8181" points="75.0531455 80.6330011 58.0904238 94.6050202 58.8585108 93.0893095 58.8585108 90.9977527 58.0904238 89.6299395 55.5782992 87.6190107 52.8232671 86.1409899 50.4167545 86.1409899 48.7500056 86.1409899 47.6381997 86.9897307 51.0261928 82.9334397 44.493368 85.3887473 45.8481444 83.8007189 45.8481444 82.2696943 43.2989643 79.8625326 40.9866191 77.5691802 38.5878987 77.027825 36.1172921 76.3646302 34.4583327 76.6761517 51.0261928 63.4385625 58.0904238 63.4385625 66.2870024 66.1630608 72.1226161 71.1892188"></polygon>
                <path d="M78.7891194,29.5423804 L74.6616807,29.2111177 L70.4226899,33.3088588 L68.7280708,36.8196132 C65.3493873,45.5063203 62.6585926,51.2538352 60.6556866,54.0621579 C58.6527806,56.8704806 55.4372905,60.0363592 51.0092162,63.5597938 C52.3468744,63.1407677 56.3317228,64.562096 62.9637614,67.8237788 C69.0007126,70.7927935 72.0348347,74.5315535 75.3834129,80.4048361 C76.281606,79.7453998 77.1084331,79.129503 77.8638943,78.5571456 C82.272473,70.2894711 84.9144424,65.2903538 85.7898026,63.5597938 C88.0030869,59.1841992 90.4769989,53.5859319 90.1331838,50.276428 C89.9039738,48.070092 89.6155911,45.8966907 89.268036,43.7562238 L91.6773592,38.0452047 L94.8144226,36.8196132 L91.1054588,33.3088588 C87.6256592,35.331112 85.7110905,36.2603166 85.3617527,36.0964725 C85.134883,35.9900675 81.4579332,36.2310764 80.459794,34.2216994 C80.1005857,33.4985691 79.5436942,31.9387961 78.7891194,29.5423804 Z" id="Path-14" fill="#08F1BD"></path>
                <g id="Head" transform="translate(78.238976, 0.000000)">
                    <path d="M11.5010943,26.8701705 L10.2122974,31.9408566 C7.67589824,32.6779488 6.40769863,33.0464949 6.40769863,33.0464949 C5.39625781,32.3296632 4.89053739,31.9712473 4.89053739,31.9712473 C4.55494684,30.9375769 4.38715156,30.4207418 4.38715156,30.4207418 L6.10004794,25.9003232 L11.5010943,26.8701705 Z" id="Path-13" fill="#FFDACA"></path>
                    <g id="Path-12">
                        <use fill="black" fill-opacity="1" filter="url(#filter-4)" xlink:href="#path-3"></use>
                        <use fill="#FFDACA" fill-rule="evenodd" xlink:href="#path-3"></use>
                    </g>
                    <g id="Path-17">
                        <use fill="black" fill-opacity="1" filter="url(#filter-6)" xlink:href="#path-5"></use>
                        <use fill="#653C18" fill-rule="evenodd" xlink:href="#path-5"></use>
                    </g>
                    <g id="Path-16">
                        <use fill="black" fill-opacity="1" filter="url(#filter-8)" xlink:href="#path-7"></use>
                        <use fill="#6C431E" fill-rule="evenodd" xlink:href="#path-7"></use>
                    </g>
                    <g id="Path-20">
                        <use fill="black" fill-opacity="1" filter="url(#filter-10)" xlink:href="#path-9"></use>
                        <use stroke="#A7948C" stroke-width="0.550000012" xlink:href="#path-9"></use>
                    </g>
                    <g id="Path-18">
                        <use fill="#FFDACA" fill-rule="evenodd" xlink:href="#path-11"></use>
                        <use fill="black" fill-opacity="1" filter="url(#filter-12)" xlink:href="#path-11"></use>
                    </g>
                    <g id="Sunglasses" transform="translate(2.009348, 7.677027)">
                        <path d="M13.8976745,10.064912 C14.8943152,8.80330455 14.6724998,9.02584084 15.5798178,7.49236464 C16.8879003,7.28766354 18.565495,8.4480025 19.8695803,8.87481969 C20.4081433,9.05108729 20.6823126,9.11700281 20.6920881,9.07256623 C21.1940137,8.73975649 21.3052372,8.50088567 21.0257586,8.35595377 C18.3834629,6.98571294 16.2233983,6.20303135 16.2233983,6.20303135 C16.2233983,6.20303135 14.3412104,5.32511231 14.3412104,5.32511231 C14.3412104,5.32511231 10.6489061,4.00113086 10.6489061,4.00113086 C10.6489061,4.00113086 6.82598838,3.49540403 6.82598838,3.49540403 C6.82598838,3.49540403 5.93641132,3.18313451 5.93641132,3.18313451 C5.93641132,3.18313451 4.04901968,1.82144308 4.04901968,1.82144308 C4.04901968,1.82144308 1.55669482,0.278175581 1.55669482,0.278175581 C1.55669482,0.278175581 0.775875638,0 0.775875638,0 C0.775875638,0 0.311443038,1.47146359 0.311443038,1.47146359 C0.311443038,1.47146359 0.620284212,1.96970008 0.620284212,1.96970008 C0.620284212,1.96970008 0,4.00655489 0,4.00655489 C0,4.00655489 0.0681688186,5.22877109 0.0681688186,5.22877109 C0.0681688186,5.22877109 1.14716153,6.41534363 1.14716153,6.41534363 C1.14716153,6.41534363 2.78139187,7.37927239 2.78139187,7.37927239 C2.78139187,7.37927239 4.39923048,7.36351685 4.39923048,7.36351685 C4.39923048,7.36351685 5.61091822,5.39846595 5.61091822,5.39846595 C5.61091822,5.39846595 6.37118268,5.43255989 6.37118268,5.43255989 C6.37118268,5.43255989 6.84576254,5.89231155 6.84576254,5.89231155 C6.84576254,5.89231155 6.84576254,6.79476789 6.84576254,6.79476789 C6.84576254,6.79476789 7.09189881,8.19623558 7.09189881,8.19623558 C7.09189881,8.19623558 7.70828023,9.26838678 7.70828023,9.26838678 C7.70828023,9.26838678 8.71129853,9.90893965 8.71129853,9.90893965 C8.71129853,9.90893965 10.1532512,10.2594357 10.1532512,10.2594357 C10.1532512,10.2594357 11.9555619,10.6600395 11.9555619,10.6600395 C11.9555619,10.6600395 12.7196378,10.6682732 13.183121,10.5262467 C13.6906941,10.3707095 13.6959668,10.3202456 13.8976745,10.064912 Z" id="Path-19" fill="url(#linearGradient-13)"></path>
                        <path d="M7.91856331,4.8238707 C7.91856331,4.8238707 7.62168053,6.02647563 7.62168053,6.02647563 C7.62168053,6.02647563 7.49372694,6.88431264 7.49372694,6.88431264 C7.49372694,6.88431264 7.53333162,7.62737823 7.53333162,7.62737823 C7.53333162,7.62737823 7.87317025,8.724587 7.87317025,8.724587 C7.87317025,8.724587 8.64957432,9.46508195 8.64957432,9.46508195 C8.64957432,9.46508195 9.57312502,9.77703643 9.57312502,9.77703643 C9.57312502,9.77703643 11.1166413,10.0891421 11.1166413,10.0891421 C11.1166413,10.0891421 12.2321224,10.240961 12.2321224,10.240961 C12.2321224,10.240961 13.003652,10.1248286 13.003652,10.1248286 C13.003652,10.1248286 13.7262851,9.62128601 13.7262851,9.62128601 C13.7262851,9.62128601 14.3566089,8.63930231 14.3566089,8.63930231 C14.3566089,8.63930231 14.6842614,7.50791917 14.6842614,7.50791917 C14.6842614,7.50791917 14.4888276,6.68985144 14.4888276,6.68985144 C14.4888276,6.68985144 13.4917036,5.90928478 13.4917036,5.90928478 C13.4917036,5.90928478 11.7242685,5.13763975 11.7242685,5.13763975 C11.7242685,5.13763975 9.73885538,4.70925049 9.73885538,4.70925049 C9.73885538,4.70925049 9.13424519,4.58356355 8.55985449,4.6197318 C8.22409915,4.64087366 7.91856331,4.8238707 7.91856331,4.8238707 Z" id="Path-21" fill="url(#radialGradient-14)"></path>
                        <path d="M5.18859515,4.27896686 C5.11689052,4.72897516 5.0810382,4.95397931 5.0810382,4.95397931 C4.9570609,5.45801423 4.89507224,5.71003169 4.89507224,5.71003169 C4.51496599,6.43052901 4.32491286,6.79077767 4.32491286,6.79077767 C3.9754962,6.96538544 3.80078786,7.05268933 3.80078786,7.05268933 C3.29175668,7.10771249 3.03724109,7.13522407 3.03724109,7.13522407 C2.31259409,6.77227052 1.95027058,6.59079375 1.95027058,6.59079375 C1.43306508,6.2339618 1.17446232,6.05554582 1.17446232,6.05554582 C0.728029289,5.47513334 0.504812771,5.1849271 0.504812771,5.1849271 C0.373593295,4.77214663 0.307983558,4.5657564 0.307983558,4.5657564 C0.307983558,4.10229483 0.307983558,3.87056404 0.307983558,3.87056404 C0.462507038,3.26267558 0.539768779,2.95873134 0.539768779,2.95873134 C0.799339545,2.38458282 0.929124928,2.09750856 0.929124928,2.09750856 C1.24691985,1.8329276 1.40581732,1.70063712 1.40581732,1.70063712 C1.82464407,1.68106225 2.03405745,1.67127482 2.03405745,1.67127482 C2.40527232,1.74765238 2.59087976,1.78584115 2.59087976,1.78584115 C3.0048306,2.04031437 3.21180602,2.16755098 3.21180602,2.16755098 C3.57147645,2.49035826 3.75131166,2.6517619 3.75131166,2.6517619 C4.10395504,2.90730284 4.28027673,3.03507331 4.28027673,3.03507331 C4.52586509,3.2808624 4.64865928,3.40375695 4.64865928,3.40375695 L4.92217659,3.72780991 C5.09978896,4.09524788 5.18859515,4.27896686 5.18859515,4.27896686 Z" id="Path-22" fill="url(#radialGradient-15)"></path>
                    </g>
                    <g id="Path-23">
                        <use fill="black" fill-opacity="1" filter="url(#filter-17)" xlink:href="#path-16"></use>
                        <use stroke="#979797" stroke-width="0.550000012" xlink:href="#path-16"></use>
                    </g>
                </g>
                <path d="M93.2928643,43.2675466 L90.7894985,45.0491089 L88.235898,49.4655711 L85.6548544,54.0886651 L81.424436,63.0644289 L75.2092793,73.7011043 L73.4770274,77.3218829 L74.1689169,77.3218829 L76.4565511,76.0613382 L79.5954793,75.3985609 L82.8634618,74.7986412 L90.4349431,60.2150289 L93.2928643,52.6882713 L96.2204296,47.591104 L100.585337,43.6876422 L105.736273,39.6415256 L113.265103,32.961163 C113.947234,32.2878174 114.288299,31.7278199 114.288299,31.2811705 C114.288299,30.8345212 113.947234,30.082681 113.265103,29.0256498 C111.589545,26.8225372 110.683276,25.806997 110.546298,25.9790293 C110.505861,26.029814 107.222961,23.6303414 107.335671,24.0725438 C107.54201,24.8820916 111.048239,29.0256498 111.290691,30.8468484 C111.340665,31.2222298 111.092534,31.7533542 110.546298,32.4402216 L108.889987,33.6334335 L106.371564,35.4264819 L100.430184,39.1937682 L96.2204296,41.393214 L93.2928643,43.2675466 Z" id="Path-24" fill-opacity="0.1" fill="#000000"></path>
                <path d="M57.8902703,90.3984021 L56.9219004,91.5263489 L47.5064602,96.8786335 L41.8103045,100.798965 L38.2619553,102.639336 L33.2678452,105.803825 L29.6318463,108.27926 L23.578773,111.141011 C22.8201447,111.256188 22.2454891,111.097487 21.8548063,110.664907 C21.4641235,110.232328 21.1789016,109.661663 20.9991406,108.952912 L20.391038,104.754572 L19.2359555,112.051408 L18.6303519,114.748431 L17.6979578,116.709984 L20.9991406,118.72863 L24.8662521,120.325585 L25.6925446,119.55085 L24.8662521,118.080351 C24.0079327,117.166773 23.578773,116.709984 23.578773,116.709984 C23.7734377,115.953611 23.87077,115.575425 23.87077,115.575425 L28.2195507,112.707173 L34.283737,109.49909 L38.2619553,106.528529 L40.9883552,104.754572 L43.416099,104.050491 L45.1402989,102.639336 L46.762071,100.798965 L51.9225138,98.1116817 L55.5889604,96.3338692 L61.9666376,95.6033106 L67.3071049,91.561075 L68.2349034,90.3984021 L68.2349034,87.3764293 L70.5105575,85.8654429 L71.7546921,86.6507548 L81.964097,78.723346 L82.9175025,74.7957582 L77.3972694,75.8712885 L59.8438491,86.1839377 L58.920965,87.7892643 C55.6823506,85.5762006 53.7602868,84.3991982 53.1547735,84.2582571 C52.271008,84.0525492 50.6820914,85.7677827 50.8792088,86.4181111 C51.0389346,86.9450775 52.9347149,86.4173608 52.8653573,86.4181111 C51.8464927,86.4291337 56.0789536,87.8657269 55.9974751,88.014966 C55.8868572,88.2175779 56.517789,88.7716304 57.8902703,89.6771237 L57.8902703,90.3984021 Z" id="Path-34" fill-opacity="0.1" fill="#000000"></path>
                <path d="M47.8078836,86.7851948 L49.5828476,84.6380819 L52.0286753,81.7046492 L49.1032564,80.1676866 L47.187824,78.9787783 L44.7310648,77.7681271 C41.6969137,76.5492397 39.9127974,75.8292344 39.3787158,75.608111 C38.9738147,75.4404716 36.3183909,76.1608994 36.4586278,76.6142546 C36.5415566,76.8823453 38.698858,77.1376442 38.6410807,77.1376442 C38.2922845,77.1376442 39.323108,77.6164728 41.7335512,78.5741302 L41.7335512,81.2544178 L40.0872264,82.7572633 L35.2708822,85.3136404 L31.7555695,86.7851948 L29.9186865,88.4187098 L27.2732862,90.0885651 L24.7005666,91.4349476 L22.1084354,93.4632699 L18.6107286,95.6764339 L16.0610321,97.1058156 L12.7104926,98.9874312 L10.0036973,100.457191 L7.54654467,101.613348 L5.90410574,101.613348 L5.27574791,100.457191 L4.88505424,98.9874312 L4.88077221,96.5643304 L4.63325411,94.629696 C4.29513592,96.0123027 4.02429294,97.9940018 3.67838303,99.2866393 C3.38947716,100.366257 3.32402818,101.881994 3.01260645,102.701627 L3.01260645,105.557201 L1.56020458,105.944568 L4.88505424,108.308452 L6.53972149,109.075146 L7.54654467,108.308452 L6.91700719,107.457126 L6.91700719,106.773637 L8.29679487,104.831013 L11.2029727,103.361905 L13.2446272,102.701627 L15.5739864,101.193912 C15.6546113,100.218091 15.7631208,99.6860383 15.8995148,99.5977551 C15.9247308,99.5814336 16.1920392,99.4129426 16.6696254,99.2866393 C16.8459332,99.2400127 17.3616343,99.2400127 18.2167286,99.2866393 L23.5070067,96.0591393 L27.2732862,94.026962 L29.9186865,92.8862867 L32.6163681,91.1427709 L34.8064309,90.0885651 L36.6652238,88.7633387 L39.7465257,87.3232908 L41.6237224,86.7851948 L43.774769,86.7851948 L47.8078836,86.7851948 Z" id="Path-35" fill-opacity="0.1" fill="#000000"></path>
                <polygon id="Path-36" fill-opacity="0.1" fill="#000000" points="59.8704362 85.4448621 73.9550422 77.3880322 56.8163146 67.1573434"></polygon>
                <path d="M90.126616,33.8751417 L91.4125954,31.3772227 L93.6270519,31.3772227 L96.364259,30.1755505 L98.1688095,27.7725256 L99.9801115,24.7113128 L101.151317,22.9955511 C100.714074,21.5874598 100.602018,20.7820602 100.81515,20.5793523 C101.028282,20.3766443 101.61601,19.4785086 102.578336,17.884945 L102.241041,16.2632405 L104.134789,12.3562938 C103.129879,11.6440022 102.498629,11.4558931 102.241041,11.7919664 C101.854658,12.2960765 99.6561848,15.4683621 99.1939202,16.2632405 C98.8857438,16.7931594 98.1980047,18.2318633 97.1307027,20.5793523 L94.8276058,23.8961483 L92.8420389,26.25288 L91.4125954,27.0081834 L88.5156629,27.7725256 L85.4042214,29.203088 L86.6626887,30.1755505 L87.5712309,31.3772227 L87.9261406,32.7253054 L89.0008391,33.8751417 L90.126616,33.8751417 Z" id="Path-37" fill-opacity="0.1" fill="#000000"></path>
                <polygon id="Path-15" fill-opacity="0.1" fill="#000000" points="73.7836131 30.0483162 72.2057943 28.9939362 68.9813223 22.3002067 70.167148 20.2876185 71.9911432 22.8070694 74.4394418 27.4575833 75.8170088 28.6979957 76.7925874 29.3919657 74.7375188 29.1777556"></polygon>
            </g>
        </g>
    </g>
</svg>