<?xml version="1.0" encoding="UTF-8"?>
<svg width="101px" height="76px" viewBox="0 0 101 76" version="1.1" xmlns="http://www.w3.org/2000/svg" xmlns:xlink="http://www.w3.org/1999/xlink">
    <!-- Generator: Sketch 51.2 (57519) - http://www.bohemiancoding.com/sketch -->
    <title>Cloud-md</title>
    <desc>Created with Sketch.</desc>
    <defs></defs>
    <g id="Welcome" stroke="none" stroke-width="1" fill="none" fill-rule="evenodd">
        <g id="Desktop-HD" transform="translate(-423.000000, -898.000000)" fill="#FFFFFF" stroke="#958B87" stroke-width="2">
            <g id="About-Section" transform="translate(39.000000, 900.000000)">
                <path d="M395.028561,51.8538935 C389.684654,49.991654 386,46.055104 386,41.5 C386,37.6818013 388.588911,34.298211 392.573868,32.2066013 C391.572349,30.8191297 391,29.2124795 391,27.5 C391,23.0176898 394.921152,19.2604148 400.195984,18.2607568 C400.067102,17.6882528 400,17.1000036 400,16.5 C400,10.7010101 406.268014,6 414,6 C415.455627,6 416.859367,6.16661306 418.179168,6.4757986 C420.509957,2.67376166 426.044045,0 432.5,0 C436.473028,0 440.096923,1.01261613 442.839955,2.6776445 C444.955833,1.62608997 447.613673,1 450.5,1 C456.344537,1 461.252225,3.56711856 462.620393,7.03564454 C469.552058,7.47857039 475,11.9944493 475,17.5 C475,19.6677949 474.155368,21.6821543 472.708102,23.3548582 C477.49824,24.441684 481,27.900802 481,32 C481,33.835518 480.297889,35.5426985 479.092384,36.9660236 C481.468658,38.702841 483,41.43153 483,44.5 C483,49.4305589 479.046144,53.4838189 473.986216,53.9543846 C473.995364,54.1349537 474,54.3168718 474,54.5 C474,59.7467051 470.19442,64 465.5,64 C464.099116,64 462.777385,63.6212385 461.612316,62.9503444 C459.47138,66.5389936 455.075344,69 450,69 C446.85184,69 443.965047,68.0531193 441.715693,66.477574 C438.622024,69.8261163 433.630699,72 428,72 C422.102539,72 416.906469,69.6152556 413.857519,65.9938455 C412.07548,66.6397198 410.091289,67 408,67 C400.268014,67 394,62.0751322 394,56 C394,54.533201 394.365393,53.1334565 395.028561,51.8538935 Z" id="Cloud-md" transform="translate(434.500000, 36.000000) scale(-1, 1) translate(-434.500000, -36.000000) "></path>
            </g>
        </g>
    </g>
</svg>