<?xml version="1.0" encoding="UTF-8"?>
<svg width="646px" height="564px" viewBox="0 0 646 564" version="1.1" xmlns="http://www.w3.org/2000/svg" xmlns:xlink="http://www.w3.org/1999/xlink">
    <!-- Generator: Sketch 51.2 (57519) - http://www.bohemiancoding.com/sketch -->
    <title>Cloud-xl</title>
    <desc>Created with Sketch.</desc>
    <defs></defs>
    <g id="Welcome" stroke="none" stroke-width="1" fill="none" fill-rule="evenodd">
        <g id="Desktop-HD" transform="translate(-770.000000, -344.000000)" fill="#30A7F7" stroke="#FFFFFF" stroke-width="6">
            <g id="Hero-Section" transform="translate(40.000000, 38.000000)">
                <path d="M789.069279,708.798173 C756.829169,693.586201 735,664.291305 735,630.649206 C735,599.228944 754.04104,571.600638 782.821064,555.69566 C775.915204,545.213984 771.946058,532.952593 771.946058,519.849206 C771.946058,488.738736 794.320031,462.374572 825.250556,453.306505 C823.756261,447.560259 822.966805,441.576581 822.966805,435.430159 C822.966805,391.477936 863.335487,355.847619 913.13278,355.847619 C923.793548,355.847619 934.022187,357.480615 943.51512,360.478664 C958.730246,331.391032 994.145528,311 1035.40664,311 C1062.64396,311 1087.33391,319.885588 1105.34739,334.292812 C1119.43674,324.718566 1137.9033,318.914286 1158.12033,318.914286 C1196.42637,318.914286 1228.44816,339.751904 1236.31792,367.589287 C1282.20851,371.241286 1318.21992,406.716201 1318.21992,449.939683 C1318.21992,466.100784 1313.18558,481.178648 1304.48283,493.914905 C1335.77574,502.163768 1358.68465,528.761988 1358.68465,560.3 C1358.68465,574.039074 1354.33704,586.840682 1346.84265,597.596203 C1361.59082,611.062369 1371,631.50429 1371,654.392063 C1371,691.697678 1346.00271,722.505414 1313.63297,727.199711 C1313.75789,729.143824 1313.82158,731.110047 1313.82158,733.095238 C1313.82158,772.433692 1288.81269,804.32381 1257.96266,804.32381 C1248.13414,804.32381 1238.89851,801.086976 1230.87556,795.403675 C1217.09268,824.060452 1187.33291,843.895238 1152.84232,843.895238 C1130.17514,843.895238 1109.55124,835.328379 1094.16285,821.320655 C1074.18351,847.78548 1041.71562,865 1005.05809,865 C965.542315,865 930.894993,844.996333 911.511578,814.965194 C899.973009,819.986984 887.110047,822.790476 873.547718,822.790476 C823.750425,822.790476 783.381743,784.994781 783.381743,738.371429 C783.381743,727.966717 785.392213,718.001646 789.069279,708.798174 Z" id="Cloud-xl"></path>
            </g>
        </g>
    </g>
</svg>