<?xml version="1.0" encoding="UTF-8"?>
<svg width="217px" height="175px" viewBox="0 0 217 175" version="1.1" xmlns="http://www.w3.org/2000/svg" xmlns:xlink="http://www.w3.org/1999/xlink">
    <!-- Generator: Sketch 51.2 (57519) - http://www.bohemiancoding.com/sketch -->
    <title>Cloud-lg</title>
    <desc>Created with Sketch.</desc>
    <defs></defs>
    <g id="Welcome" stroke="none" stroke-width="1" fill="none" fill-rule="evenodd">
        <g id="Desktop-HD" transform="translate(-543.000000, -751.000000)" fill="#FFFFFF" stroke="#958B87" stroke-width="3">
            <g id="Hero-Section" transform="translate(40.000000, 38.000000)">
                <path d="M523.949086,837.834609 C512.680356,833.225899 505,824.057748 505,813.5 C505,803.929448 511.311211,795.500775 520.885524,790.575194 C518.422174,787.212783 517,783.246923 517,779 C517,769.056888 524.79558,760.654415 535.49727,757.929825 C535.17063,756.493058 535,755.012535 535,753.5 C535,739.969024 548.655315,729 565.5,729 C568.709334,729 571.802894,729.398173 574.708298,730.136376 C579.835595,721.234078 591.692246,715 605.5,715 C614.528524,715 622.722852,717.665383 628.747159,721.999264 C633.553129,718.894907 639.9621,717 647,717 C660.002299,717 670.857977,723.467586 673.424855,732.080483 C688.85944,733.109263 701,743.87314 701,757 C701,762.115069 699.156598,766.871346 695.993209,770.832654 C706.396772,773.373787 714,781.441046 714,791 C714,795.66 712.193038,799.965488 709.135567,803.449042 C714.515764,807.550831 718,814.109274 718,821.5 C718,832.542274 710.222313,841.726686 699.964063,843.635723 C699.987904,844.086941 700,844.541835 700,845 C700,857.150264 691.49341,867 681,867 C677.167749,867 673.60049,865.686291 670.615797,863.42659 C666.211282,872.59509 656.175535,879 644.5,879 C637.379467,879 630.868834,876.617766 625.873496,872.679271 C619.141872,880.755321 608.268221,886 596,886 C582.822128,886 571.253299,879.948734 564.698552,870.837112 C560.962913,872.228272 556.837178,873 552.5,873 C535.655315,873 522,861.359403 522,847 C522,843.773912 522.689257,840.685057 523.949086,837.834609 Z" id="Cloud-lg" transform="translate(611.500000, 800.500000) scale(-1, 1) translate(-611.500000, -800.500000) "></path>
            </g>
        </g>
    </g>
</svg>