<?xml version="1.0" encoding="UTF-8"?>
<svg width="1189px" height="862px" viewBox="0 0 1189 862" version="1.1" xmlns="http://www.w3.org/2000/svg" xmlns:xlink="http://www.w3.org/1999/xlink">
    <!-- Generator: Sketch 50.2 (55047) - http://www.bohemiancoding.com/sketch -->
    <title>Wave-3</title>
    <desc>Created with Sketch.</desc>
    <defs></defs>
    <g id="Welcome" stroke="none" stroke-width="1" fill="none" fill-rule="evenodd" opacity="0.550000012">
        <g id="Desktop-HD" transform="translate(-212.000000, -80.000000)" fill="#2776E5">
            <g id="Hero-Section" transform="translate(40.000000, 38.000000)">
                <g id="Wave-3" transform="translate(1.000000, 0.000000)">
                    <path d="M22.0503021,958.990108 C106.84384,930.150711 165.873883,907.679029 199.140431,891.575063 C249.040252,867.419113 236.387118,797.42211 263.362228,776.123855 C341.989378,714.043625 445.782862,779.468295 516.379604,713.094673 C593.917925,640.19472 540.033305,596.343113 628.871786,531.717894 C749.117444,444.245642 744.538302,516.428884 821.513527,470.144599 C898.04365,424.127949 833.403708,371.793245 909.848159,330.206811 C984.795115,289.435028 1055.46718,354.4571 1126.58137,310.206811 C1210.60623,257.922958 1135.64666,199.603363 1216.33895,128.576952 C1268.64509,82.536392 1331.63325,48.7891333 1405.30342,27.3351754 L1405.30342,1017.34434 L22.0503021,958.990108 Z" id="Path-49"></path>
                </g>
            </g>
        </g>
    </g>
</svg>